{
    "accessors": {
        "accessor_102": {
            "bufferView": "bufferView_110",
            "byteOffset": 2088,
            "byteStride": 2,
            "componentType": 5123,
            "count": 1398,
            "max": [
                286.0
            ],
            "min": [
                0.0
            ],
            "type": "SCALAR"
        },
        "accessor_104": {
            "bufferView": "bufferView_111",
            "byteOffset": 11520,
            "byteStride": 12,
            "componentType": 5126,
            "count": 557,
            "max": [
                1.5240000486373902,
                4.495800018310547,
                3.4783999919891359
            ],
            "min": [
                -1.5240000486373902,
                -4.495800018310547,
                0.619035005569458
            ],
            "type": "VEC3"
        },
        "accessor_106": {
            "bufferView": "bufferView_111",
            "byteOffset": 18204,
            "byteStride": 12,
            "componentType": 5126,
            "count": 557,
            "max": [
                1.0,
                1.0,
                1.0
            ],
            "min": [
                -1.0,
                -1.0,
                -1.0
            ],
            "type": "VEC3"
        },
        "accessor_108": {
            "bufferView": "bufferView_111",
            "byteOffset": 24888,
            "byteStride": 8,
            "componentType": 5126,
            "count": 557,
            "max": [
                0.9794920086860657,
                0.972900390625
            ],
            "min": [
                0.0739746019244194,
                0.011230051517486573
            ],
            "type": "VEC2"
        },
        "accessor_21": {
            "bufferView": "bufferView_110",
            "byteOffset": 0,
            "byteStride": 2,
            "componentType": 5123,
            "count": 324,
            "max": [
                59.0
            ],
            "min": [
                0.0
            ],
            "type": "SCALAR"
        },
        "accessor_23": {
            "bufferView": "bufferView_111",
            "byteOffset": 0,
            "byteStride": 12,
            "componentType": 5126,
            "count": 88,
            "max": [
                0.914804995059967,
                3.67402982711792,
                3.302000045776367
            ],
            "min": [
                -0.914804995059967,
                3.1999199390411379,
                3.0980000495910646
            ],
            "type": "VEC3"
        },
        "accessor_25": {
            "bufferView": "bufferView_111",
            "byteOffset": 1056,
            "byteStride": 12,
            "componentType": 5126,
            "count": 88,
            "max": [
                1.0,
                0.9990190267562866,
                0.9994909763336182
            ],
            "min": [
                -1.0,
                -0.9990190267562866,
                -1.0
            ],
            "type": "VEC3"
        },
        "accessor_27": {
            "bufferView": "bufferView_111",
            "byteOffset": 2112,
            "byteStride": 8,
            "componentType": 5126,
            "count": 88,
            "max": [
                0.9877539873123169,
                0.9898300766944885
            ],
            "min": [
                0.006233669817447662,
                0.00484699010848999
            ],
            "type": "VEC2"
        },
        "accessor_48": {
            "bufferView": "bufferView_110",
            "byteOffset": 648,
            "byteStride": 2,
            "componentType": 5123,
            "count": 360,
            "max": [
                67.0
            ],
            "min": [
                0.0
            ],
            "type": "SCALAR"
        },
        "accessor_50": {
            "bufferView": "bufferView_111",
            "byteOffset": 2816,
            "byteStride": 12,
            "componentType": 5126,
            "count": 136,
            "max": [
                1.462209939956665,
                3.039369821548462,
                1.1850699186325074
            ],
            "min": [
                -1.462209939956665,
                1.8542999029159547,
                0.0
            ],
            "type": "VEC3"
        },
        "accessor_52": {
            "bufferView": "bufferView_111",
            "byteOffset": 4448,
            "byteStride": 12,
            "componentType": 5126,
            "count": 136,
            "max": [
                1.0,
                0.9978089928627014,
                0.9978089928627014
            ],
            "min": [
                -1.0,
                -0.9978089928627014,
                -0.9978089928627014
            ],
            "type": "VEC3"
        },
        "accessor_54": {
            "bufferView": "bufferView_111",
            "byteOffset": 6080,
            "byteStride": 8,
            "componentType": 5126,
            "count": 136,
            "max": [
                0.777347981929779,
                0.733244001865387
            ],
            "min": [
                0.6229069828987122,
                0.3987799882888794
            ],
            "type": "VEC2"
        },
        "accessor_75": {
            "bufferView": "bufferView_110",
            "byteOffset": 1368,
            "byteStride": 2,
            "componentType": 5123,
            "count": 360,
            "max": [
                67.0
            ],
            "min": [
                0.0
            ],
            "type": "SCALAR"
        },
        "accessor_77": {
            "bufferView": "bufferView_111",
            "byteOffset": 7168,
            "byteStride": 12,
            "componentType": 5126,
            "count": 136,
            "max": [
                1.462209939956665,
                -1.7248899936676026,
                1.1850699186325074
            ],
            "min": [
                -1.462209939956665,
                -2.9099600315093996,
                0.0
            ],
            "type": "VEC3"
        },
        "accessor_79": {
            "bufferView": "bufferView_111",
            "byteOffset": 8800,
            "byteStride": 12,
            "componentType": 5126,
            "count": 136,
            "max": [
                1.0,
                0.9978089928627014,
                0.9978089928627014
            ],
            "min": [
                -1.0,
                -0.9978089928627014,
                -0.9978089928627014
            ],
            "type": "VEC3"
        },
        "accessor_81": {
            "bufferView": "bufferView_111",
            "byteOffset": 10432,
            "byteStride": 8,
            "componentType": 5126,
            "count": 136,
            "max": [
                0.7949190139770508,
                0.7331529855728149
            ],
            "min": [
                0.7129790186882019,
                0.39907002449035647
            ],
            "type": "VEC2"
        }
    },
    "animations": {},
    "asset": {
        "generator": "collada2gltf@GITDIR-NOTFOUND",
        "premultipliedAlpha": true,
        "profile": {
            "api": "WebGL",
            "version": "1.0.2"
        },
        "version": "1.0.1"
    },
    "bufferViews": {
        "bufferView_110": {
            "buffer": "Firetruck_rotate_270",
            "byteLength": 4884,
            "byteOffset": 0,
            "target": 34963
        },
        "bufferView_111": {
            "buffer": "Firetruck_rotate_270",
            "byteLength": 29344,
            "byteOffset": 4884,
            "target": 34962
        }
    },
    "buffers": {
        "Firetruck_rotate_270": {
            "byteLength": 34228,
            "type": "arraybuffer",
            "uri": "data:application/octet-stream;base64,"
        }
    },
    "images": {
        "material_1_effect-image": {
            "name": "material_1_effect-image",
            "uri": "data:image/png;base64,"
        },
        "material_effect-image": {
            "name": "material_effect-image",
            "uri": "data:image/png;base64,"
        }
    },
    "materials": {
        "material_1_effect": {
            "name": "material_1",
            "technique": "technique0",
            "values": {
                "ambient": [
                    1.0,
                    1.0,
                    1.0,
                    1.0
                ],
                "diffuse": "texture_material_1_effect-image",
                "emission": [
                    0.0,
                    0.0,
                    0.0,
                    1.0
                ],
                "shininess": 0.0,
                "specular": [
                    0.0,
                    0.0,
                    0.0,
                    0.0
                ]
            }
        },
        "material_effect": {
            "name": "material",
            "technique": "technique0",
            "values": {
                "ambient": [
                    1.0,
                    1.0,
                    1.0,
                    1.0
                ],
                "diffuse": "texture_material_effect-image",
                "emission": [
                    0.0,
                    0.0,
                    0.0,
                    1.0
                ],
                "shininess": 0.0,
                "specular": [
                    0.0,
                    0.0,
                    0.0,
                    0.0
                ]
            }
        }
    },
    "meshes": {
        "geometry": {
            "name": "geometry",
            "primitives": [
                {
                    "attributes": {
                        "NORMAL": "accessor_25",
                        "POSITION": "accessor_23",
                        "TEXCOORD_0": "accessor_27"
                    },
                    "indices": "accessor_21",
                    "material": "material_effect",
                    "mode": 4
                }
            ]
        },
        "geometry_1": {
            "name": "geometry_1",
            "primitives": [
                {
                    "attributes": {
                        "NORMAL": "accessor_52",
                        "POSITION": "accessor_50",
                        "TEXCOORD_0": "accessor_54"
                    },
                    "indices": "accessor_48",
                    "material": "material_1_effect",
                    "mode": 4
                }
            ]
        },
        "geometry_2": {
            "name": "geometry_2",
            "primitives": [
                {
                    "attributes": {
                        "NORMAL": "accessor_79",
                        "POSITION": "accessor_77",
                        "TEXCOORD_0": "accessor_81"
                    },
                    "indices": "accessor_75",
                    "material": "material_1_effect",
                    "mode": 4
                }
            ]
        },
        "geometry_3": {
            "name": "geometry_3",
            "primitives": [
                {
                    "attributes": {
                        "NORMAL": "accessor_106",
                        "POSITION": "accessor_104",
                        "TEXCOORD_0": "accessor_108"
                    },
                    "indices": "accessor_102",
                    "material": "material_1_effect",
                    "mode": 4
                }
            ]
        }
    },
    "nodes": {
        "LOD": {
            "children": [
                "matrixTransform"
            ],
            "name": "LOD"
        },
        "group": {
            "children": [
                "LOD"
            ],
            "name": "group"
        },
        "matrixTransform": {
            "children": [
                "matrixTransform_1"
            ],
            "name": "matrixTransform"
        },
        "matrixTransform_1": {
            "children": [],
            "matrix": [
                6.123230292458899e-17,
                -1.0,
                0.0,
                0.0,
                1.0,
                6.123230292458899e-17,
                0.0,
                0.0,
                0.0,
                0.0,
                1.0,
                0.0,
                0.0,
                0.0,
                0.0,
                1.0
            ],
            "meshes": [
                "geometry",
                "geometry_1",
                "geometry_2",
                "geometry_3"
            ],
            "name": "matrixTransform_1"
        },
        "node_5": {
            "children": [
                "sceneRoot"
            ],
            "matrix": [
                1.0,
                0.0,
                0.0,
                0.0,
                0.0,
                0.0,
                -1.0,
                0.0,
                0.0,
                1.0,
                0.0,
                0.0,
                0.0,
                0.0,
                0.0,
                1.0
            ],
            "name": "Y_UP_Transform"
        },
        "sceneRoot": {
            "children": [
                "group"
            ],
            "name": "sceneRoot"
        }
    },
    "programs": {
        "program_0": {
            "attributes": [
                "a_normal",
                "a_position",
                "a_texcoord0"
            ],
            "fragmentShader": "Firetruck_rotate_2700FS",
            "vertexShader": "Firetruck_rotate_2700VS"
        }
    },
    "samplers": {
        "sampler_0": {
            "magFilter": 9729,
            "minFilter": 9987,
            "wrapS": 10497,
            "wrapT": 10497
        }
    },
    "scene": "defaultScene",
    "scenes": {
        "defaultScene": {
            "nodes": [
                "node_5"
            ]
        }
    },
    "shaders": {
        "Firetruck_rotate_2700FS": {
            "type": 35632,
            "uri": "data:text/plain;base64,"
        },
        "Firetruck_rotate_2700VS": {
            "type": 35633,
            "uri": "data:text/plain;base64,"
        }
    },
    "skins": {},
    "techniques": {
        "technique0": {
            "attributes": {
                "a_normal": "normal",
                "a_position": "position",
                "a_texcoord0": "texcoord0"
            },
            "parameters": {
                "ambient": {
                    "type": 35666
                },
                "diffuse": {
                    "type": 35678
                },
                "emission": {
                    "type": 35666
                },
                "modelViewMatrix": {
                    "semantic": "MODELVIEW",
                    "type": 35676
                },
                "normal": {
                    "semantic": "NORMAL",
                    "type": 35665
                },
                "normalMatrix": {
                    "semantic": "MODELVIEWINVERSETRANSPOSE",
                    "type": 35675
                },
                "position": {
                    "semantic": "POSITION",
                    "type": 35665
                },
                "projectionMatrix": {
                    "semantic": "PROJECTION",
                    "type": 35676
                },
                "shininess": {
                    "type": 5126
                },
                "specular": {
                    "type": 35666
                },
                "texcoord0": {
                    "semantic": "TEXCOORD_0",
                    "type": 35664
                }
            },
            "program": "program_0",
            "states": {
                "enable": [
                    2929,
                    2884
                ]
            },
            "uniforms": {
                "u_ambient": "ambient",
                "u_diffuse": "diffuse",
                "u_emission": "emission",
                "u_modelViewMatrix": "modelViewMatrix",
                "u_normalMatrix": "normalMatrix",
                "u_projectionMatrix": "projectionMatrix",
                "u_shininess": "shininess",
                "u_specular": "specular"
            }
        }
    },
    "textures": {
        "texture_material_1_effect-image": {
            "format": 6408,
            "internalFormat": 6408,
            "sampler": "sampler_0",
            "source": "material_1_effect-image",
            "target": 3553,
            "type": 5121
        },
        "texture_material_effect-image": {
            "format": 6408,
            "internalFormat": 6408,
            "sampler": "sampler_0",
            "source": "material_effect-image",
            "target": 3553,
            "type": 5121
        }
    }
}